<svg width="1440" height="34" viewBox="0 0 1440 34" fill="none" xmlns="http://www.w3.org/2000/svg">
<path d="M260.571 4.90833C173.706 7.28401 86.9038 11.4492 0 11.4492V34.6642H1440V11.4492C1422.64 11.4492 1405.16 7.56302 1387.82 6.19414C1368.6 4.67665 1350.74 1.71825 1331.23 2.95167C1299.11 4.98282 1267.01 3.39891 1234.84 3.39891C1211.68 3.39891 1189.1 7.86535 1166.05 9.60433C1154.78 10.454 1143.3 9.42845 1132.1 10.4988C1119.54 11.6981 1106.96 11.4806 1094.36 11.4492C1035.75 11.3034 977.21 8.4416 918.634 7.03271C848.533 5.34663 778.457 1.95717 708.348 0.827286C661.309 0.069178 614.327 1.41262 567.303 2.39262C465.064 4.52333 362.799 2.11252 260.571 4.90833Z" fill="white"/>
</svg>
