<svg width="312" height="75" viewBox="0 0 312 75" fill="none" xmlns="http://www.w3.org/2000/svg">
<path d="M1.2136 48.7111C-0.154576 54.9571 2.12201 61.2599 4.99458 66.6671C5.74215 68.0743 9.4005 70.4409 10.8889 70.6063C13.3338 70.8779 15.7326 71.3636 18.1346 71.8857C23.2976 73.0081 28.5333 70.6893 33.3016 68.9817C39.6401 66.7119 45.6306 66.1683 52.3503 65.3318C57.8127 64.6518 64.1161 64.9209 69.2281 62.6003C70.4683 62.0373 71.8556 60.9327 73.2822 60.9327C77.1816 60.9327 81.6999 62.3027 85.4303 62.9453C97.3569 65 109.348 64.6394 121.357 66.1352C126.121 66.7286 130.946 67.4438 135.762 67.501C150.495 67.6758 165.088 68.8476 179.782 69.9449C183.128 70.1948 185.752 70.1993 188.954 69.9449C191.958 69.7063 195.098 70.2303 198.055 70.6206C205.59 71.6154 212.897 70.5861 220.381 71.8617C228.965 73.3247 237.498 74.0003 246.201 74.0181L246.517 74.0188C258.638 74.0438 270.907 74.0691 282.846 71.8041C288.448 70.7414 294.628 71.052 300.4 72.1014C301.868 72.3683 303.922 72.9676 305.36 72.317C307.145 71.5094 307.641 69.2008 307.991 67.501C309.424 60.5286 307.716 53.2891 309.112 46.3102C309.977 41.987 311.744 38.508 311.556 33.9753C311.376 29.6245 311.003 24.9629 309.975 20.7203C309.497 18.7511 308.592 17.4851 307.2 16.0768C305.063 13.9152 303.08 11.7854 300.17 10.7719C298.163 10.0731 296.667 8.47959 294.635 7.82473C290.354 6.44545 285.708 6.86383 281.754 4.60442C279.892 3.54045 277.639 3.55373 275.558 3.36806C270.59 2.92494 265.654 2.77122 260.664 2.95114C247.251 3.43472 233.841 5.35876 220.683 7.95411C213.913 9.28946 207.149 10.0825 200.225 9.88054C195.667 9.7476 191.136 9.17348 186.597 8.78794C175.51 7.84635 164.397 7.31768 153.301 6.51648C142.691 5.75035 132.149 4.59549 121.616 3.12366C116.139 2.3585 110.695 1.50057 105.169 1.16848C93.1786 0.4479 81.1293 1.20689 69.1562 1.87292C59.7677 2.39517 50.3783 2.94805 40.993 3.5262C33.3195 3.9989 25.6527 4.61004 18.0196 5.53889C15.1215 5.89154 12.0987 6.20265 9.27874 7.01965C6.97366 7.68748 5.10364 9.25486 5.00896 11.7638C4.82849 16.5464 4.87009 21.6672 5.85716 26.3558C6.68295 30.2783 7.17549 32.627 5.74215 36.5631C4.27064 40.604 2.14015 44.4812 1.2136 48.7111Z" fill="#BE1414"/>
</svg>
