<svg width="301" height="173" viewBox="0 0 301 173" fill="none" xmlns="http://www.w3.org/2000/svg">
<path fill-rule="evenodd" clip-rule="evenodd" d="M4.95012 31.3667C4.84728 28.2484 4.72116 25.1307 4.59504 22.0133C4.34845 15.9181 4.10189 9.82342 4.02944 3.72535C5.11109 3.80232 6.19351 3.90367 7.27518 4.00495C8.69798 4.13817 10.1195 4.27127 11.5362 4.34859C12.6004 4.40667 13.6447 4.47942 14.6807 4.55159L14.6808 4.5516L14.6808 4.5516C17.5426 4.75096 20.3415 4.94594 23.3248 4.81553C27.9769 4.61217 32.6279 4.66045 37.2825 4.70876L37.2826 4.70876C39.3229 4.72994 41.364 4.75113 43.4061 4.75113C46.3959 4.75113 49.3393 4.50417 52.2885 4.25672C54.0989 4.10483 55.9114 3.95275 57.7383 3.85749C58.8464 3.79971 59.9646 3.80215 61.0821 3.80459C62.3311 3.80731 63.5792 3.81003 64.8114 3.72868C67.1236 3.57604 69.4388 3.58278 71.7588 3.58952C72.0639 3.59041 72.3691 3.59129 72.6744 3.59182C80.628 3.6055 88.5766 3.78518 96.5253 3.96487C100.778 4.06099 105.03 4.15712 109.283 4.22783C115.56 4.33219 121.836 4.48187 128.113 4.63156L128.113 4.63156L128.113 4.63157C136.439 4.83013 144.765 5.02868 153.093 5.12146C161.445 5.21451 169.789 5.08771 178.137 4.96085C179.583 4.93887 181.03 4.91688 182.477 4.89604C192.4 4.75309 202.325 4.75209 212.249 4.75109C223.627 4.74995 235.004 4.7488 246.379 4.53376C251.819 4.43092 257.258 4.30479 262.697 4.17867C274.123 3.9137 285.548 3.64875 296.98 3.59984C296.957 3.74582 296.933 3.89178 296.909 4.03772C296.776 4.85334 296.643 5.6682 296.565 6.4803C296.507 7.09036 296.434 7.68898 296.362 8.28288C296.163 9.92332 295.968 11.5278 296.098 13.2379C296.302 15.9045 296.253 18.5706 296.205 21.2387C296.184 22.4083 296.163 23.5784 296.163 24.749C296.163 26.4628 296.41 28.15 296.657 29.8406C296.809 30.8784 296.961 31.9174 297.056 32.9646C297.114 33.5998 297.112 34.2407 297.109 34.8813C297.107 35.5973 297.104 36.3127 297.185 37.0191C297.338 38.3444 297.331 39.6715 297.324 41.0013C297.323 41.1763 297.323 41.3513 297.322 41.5264C297.308 46.0856 297.129 50.6419 296.949 55.1983C296.853 57.6358 296.757 60.0734 296.686 62.5114C296.582 66.1096 296.432 69.7073 296.282 73.305C296.084 78.0776 295.885 82.8503 295.792 87.6242C295.699 92.4125 295.826 97.1958 295.953 101.981C295.975 102.81 295.997 103.639 296.018 104.468C296.161 110.156 296.162 115.845 296.163 121.534C296.164 128.056 296.165 134.578 296.38 141.099C296.483 144.217 296.609 147.335 296.735 150.453C296.982 156.548 297.228 162.642 297.301 168.74C296.219 168.663 295.137 168.562 294.055 168.46L294.055 168.46C292.632 168.327 291.211 168.194 289.794 168.117C288.73 168.059 287.685 167.986 286.649 167.914C283.788 167.714 280.989 167.519 278.005 167.65C273.353 167.853 268.702 167.805 264.048 167.757C262.007 167.735 259.966 167.714 257.924 167.714C254.934 167.714 251.991 167.961 249.042 168.209L249.042 168.209C247.231 168.361 245.419 168.513 243.592 168.608C242.484 168.666 241.366 168.663 240.248 168.661C238.999 168.658 237.751 168.655 236.519 168.737C234.206 168.889 231.891 168.883 229.571 168.876C229.266 168.875 228.961 168.874 228.656 168.874C220.702 168.86 212.754 168.68 204.805 168.501H204.805H204.804C200.552 168.404 196.3 168.308 192.047 168.238C185.77 168.133 179.493 167.984 173.217 167.834L173.213 167.834C164.889 167.635 156.564 167.437 148.238 167.344C139.885 167.251 131.541 167.378 123.194 167.505H123.193H123.193L123.143 167.505C121.713 167.527 120.283 167.549 118.853 167.569C108.93 167.712 99.0055 167.713 89.0812 167.714C77.7036 167.715 66.3261 167.717 54.9508 167.932C49.511 168.034 44.0724 168.161 38.634 168.287H38.6338L38.632 168.287C27.2064 168.552 15.782 168.817 4.35009 168.866C4.37362 168.72 4.39747 168.574 4.42131 168.428C4.55453 167.612 4.68762 166.797 4.76495 165.985C4.82304 165.375 4.89579 164.776 4.96796 164.183C5.16732 162.542 5.3623 160.938 5.23189 159.228C5.02853 156.561 5.07681 153.895 5.12512 151.227C5.1463 150.057 5.16749 148.887 5.16749 147.716C5.16749 146.003 4.92053 144.315 4.67308 142.625C4.52119 141.587 4.36911 140.548 4.27385 139.501C4.21607 138.866 4.21851 138.225 4.22095 137.584C4.22367 136.868 4.22639 136.153 4.14504 135.446C3.99241 134.121 3.99914 132.794 4.00588 131.464C4.00677 131.289 4.00766 131.114 4.00818 130.939C4.02186 126.38 4.20154 121.823 4.38123 117.267C4.47735 114.83 4.57348 112.392 4.64419 109.954C4.74856 106.356 4.89824 102.758 5.04793 99.1601C5.24649 94.3875 5.44505 89.615 5.53782 84.8412C5.63087 80.0533 5.50407 75.2704 5.37721 70.4851C5.35523 69.6559 5.33324 68.8267 5.3124 67.9973C5.16945 62.309 5.16845 56.62 5.16745 50.9312C5.16631 44.4092 5.16517 37.8873 4.95012 31.3667ZM300.665 0.248734L300.665 3.59182V168.874V172.217L297.322 172.217L4.00818 172.217H0.665039L0.665046 0.248657H4.00819V0.248679H300.665L300.665 0.248734Z" fill="white"/>
</svg>
