<svg width="453" height="86" viewBox="0 0 453 86" fill="none" xmlns="http://www.w3.org/2000/svg">
  <path d="M5.07342 84.3174C4.14303 84.3174 3.2842 83.9596 2.49695 83.2439C1.78126 82.5998 1.42342 81.8125 1.42342 80.8821C1.42342 80.238 1.56656 79.4508 1.85283 78.5204C2.06754 77.5184 2.17489 76.7669 2.17489 76.266C2.17489 69.8963 1.81705 57.6581 1.10136 39.5513C0.385675 24.0924 0.027832 11.89 0.027832 2.94393C0.027832 2.29981 0.278322 1.79883 0.779302 1.44099C1.28028 1.01158 1.88862 0.796875 2.6043 0.796875C3.46312 0.796875 4.21459 1.11893 4.85871 1.76305C5.50283 2.3356 5.82489 3.05128 5.82489 3.91011C5.82489 8.20422 6.03959 14.6454 6.469 23.2336C6.82685 32.7522 7.00577 39.1934 7.00577 42.5571L7.11312 43.8454V45.1336V45.8851V46.4219C7.32783 52.6483 7.43518 61.9522 7.43518 74.3336V77.1248H15.7014C17.2043 78.1983 17.9558 79.2718 17.9558 80.3454C17.9558 81.1326 17.6695 81.8483 17.0969 82.4924C16.596 83.065 15.9876 83.3512 15.2719 83.3512C15.0572 83.3512 14.6636 83.2797 14.0911 83.1365L13.6616 83.0292C13.2322 83.1008 12.5523 83.1365 11.6219 83.1365H9.79695C9.29597 83.065 8.72342 83.0292 8.0793 83.0292C7.36361 83.888 6.36165 84.3174 5.07342 84.3174Z" fill="white"/>
  <path d="M39.641 85.1762C37.7803 85.1762 36.0626 84.5679 34.4881 83.3512C32.9136 82.2061 31.6254 80.6316 30.6234 78.6277C28.5479 74.262 27.2597 69.5027 26.7587 64.3498C26.1146 59.4831 25.7925 54.7954 25.7925 50.2866C25.7925 49.4277 25.8283 48.712 25.8999 48.1395V46.2071C25.8999 45.8493 25.8641 45.6704 25.7925 45.6704V43.738L25.8999 36.2233C25.9714 33.9331 26.2577 30.2831 26.7587 25.2733C27.1165 21.838 27.9396 18.5101 29.2278 15.2895C29.7288 13.8581 30.3729 12.7846 31.1602 12.0689C31.9474 11.2817 32.842 10.888 33.844 10.888C36.7067 10.888 39.2832 11.4248 41.5734 12.4983C43.8636 13.5003 45.7959 14.9317 47.3705 16.7925C48.8018 18.5817 50.0185 20.8003 51.0205 23.4483C52.0224 26.0248 52.7381 28.7802 53.1675 31.7145C53.5969 34.7204 53.8116 37.9052 53.8116 41.2689V42.1277C53.8116 44.3464 53.8474 46.3503 53.919 48.1395L54.0263 54.2586C54.0263 74.8704 49.2312 85.1762 39.641 85.1762ZM39.2116 80.6674C40.4999 80.6674 41.6808 80.1664 42.7543 79.1645C43.8278 78.091 44.6508 76.6596 45.2234 74.8704C46.5832 71.2204 47.4062 67.2841 47.6925 63.0615C48.0504 59.4115 48.2293 56.2625 48.2293 53.6145C48.2293 50.3939 47.9788 46.1714 47.4778 40.9469C47.0484 35.4361 46.8337 31.3209 46.8337 28.6013V26.6689C46.6906 23.9493 45.7602 21.5876 44.0425 19.5836C42.3964 17.5797 40.3567 16.5777 37.9234 16.5777C35.4901 16.5777 33.8798 17.9733 33.0925 20.7645C32.3768 22.9831 32.019 25.8459 32.019 29.3527C32.019 30.7125 32.0548 31.8576 32.1263 32.788V35.6866L31.9116 40.6248C31.7685 42.1277 31.6969 43.7738 31.6969 45.563C31.6969 49.4277 31.8043 53.2566 32.019 57.0498C32.3053 62.4174 33.021 67.6419 34.166 72.7233C35.3111 78.0194 36.993 80.6674 39.2116 80.6674Z" fill="white"/>
  <path d="M78.3258 85.1762C76.465 85.1762 74.7474 84.5679 73.1729 83.3512C71.5984 82.2061 70.3101 80.6316 69.3082 78.6277C67.2327 74.262 65.9445 69.5027 65.4435 64.3498C64.7994 59.4831 64.4773 54.7954 64.4773 50.2866C64.4773 49.4277 64.5131 48.712 64.5847 48.1395V46.2071C64.5847 45.8493 64.5489 45.6704 64.4773 45.6704V43.738L64.5847 36.2233C64.6562 33.9331 64.9425 30.2831 65.4435 25.2733C65.8013 21.838 66.6244 18.5101 67.9126 15.2895C68.4136 13.8581 69.0577 12.7846 69.845 12.0689C70.6322 11.2817 71.5268 10.888 72.5288 10.888C75.3915 10.888 77.968 11.4248 80.2582 12.4983C82.5484 13.5003 84.4807 14.9317 86.0552 16.7925C87.4866 18.5817 88.7033 20.8003 89.7052 23.4483C90.7072 26.0248 91.4229 28.7802 91.8523 31.7145C92.2817 34.7204 92.4964 37.9052 92.4964 41.2689V42.1277C92.4964 44.3464 92.5322 46.3503 92.6038 48.1395L92.7111 54.2586C92.7111 74.8704 87.916 85.1762 78.3258 85.1762ZM77.8964 80.6674C79.1847 80.6674 80.3655 80.1664 81.4391 79.1645C82.5126 78.091 83.3356 76.6596 83.9082 74.8704C85.268 71.2204 86.091 67.2841 86.3773 63.0615C86.7351 59.4115 86.9141 56.2625 86.9141 53.6145C86.9141 50.3939 86.6636 46.1714 86.1626 40.9469C85.7332 35.4361 85.5185 31.3209 85.5185 28.6013V26.6689C85.3753 23.9493 84.4449 21.5876 82.7273 19.5836C81.0812 17.5797 79.0415 16.5777 76.6082 16.5777C74.1749 16.5777 72.5646 17.9733 71.7773 20.7645C71.0616 22.9831 70.7038 25.8459 70.7038 29.3527C70.7038 30.7125 70.7396 31.8576 70.8111 32.788V35.6866L70.5964 40.6248C70.4533 42.1277 70.3817 43.7738 70.3817 45.563C70.3817 49.4277 70.4891 53.2566 70.7038 57.0498C70.9901 62.4174 71.7057 67.6419 72.8508 72.7233C73.9959 78.0194 75.6778 80.6674 77.8964 80.6674Z" fill="white"/>
  <path d="M133.758 83.4586C132.899 83.4586 132.255 83.2439 131.825 82.8145C131.396 82.3135 131.074 81.4905 130.859 80.3454L130.215 78.3057V78.091V77.7689C130.215 75.4071 127.746 67.3557 122.808 53.6145C117.941 39.8733 114.112 29.7106 111.321 23.1263V77.1248L111.75 77.8762C111.822 78.0194 111.965 78.2699 112.18 78.6277C112.394 78.9856 112.502 79.3434 112.502 79.7012C112.502 80.6316 112.18 81.4189 111.536 82.063C110.891 82.7071 110.104 83.0292 109.174 83.0292C106.884 83.0292 105.739 80.8463 105.739 76.4807L105.631 58.1233C105.56 52.6125 105.524 46.4576 105.524 39.6586C105.524 37.3684 105.631 34.0405 105.846 29.6748C106.061 25.166 106.168 21.838 106.168 19.691C106.168 16.3273 107.456 13.6792 110.033 11.7469V12.391C110.462 12.2479 110.748 12.1763 110.891 12.1763C112.538 12.1763 114.613 15.039 117.118 20.7645C119.122 25.3449 120.911 30.1758 122.486 35.2571C124.132 40.3385 126.279 47.5669 128.927 56.9424L130 60.8071C131.646 66.6042 132.899 70.7552 133.758 73.2601C135.189 57.8728 135.905 39.6944 135.905 18.7248V17.3292C135.833 16.8998 135.797 16.4346 135.797 15.9336C135.797 13.7866 136.656 12.713 138.374 12.713C139.376 12.713 140.127 13.1067 140.628 13.8939C141.201 14.6812 141.487 15.6831 141.487 16.8998V24.9513C141.344 35.9728 140.915 47.9248 140.199 60.8071C139.483 73.6895 138.624 80.9537 137.622 82.5998C135.547 83.1723 134.259 83.4586 133.758 83.4586Z" fill="white"/>
  <path d="M161.188 83.0292C154.962 83.0292 151.848 81.9557 151.848 79.8086C151.848 78.0909 152.958 77.2321 155.176 77.2321H156.357L157.431 77.3395C158.003 77.3395 158.397 77.1606 158.612 76.8027C158.826 76.4449 158.934 75.8008 158.934 74.8704C158.934 73.6537 158.862 71.7571 158.719 69.1807C158.504 67.463 158.254 64.3856 157.967 59.9483C157.323 48.9983 157.001 40.7321 157.001 35.1498C157.001 33.1459 157.037 31.3209 157.109 29.6748L157.216 24.1998C157.216 21.838 157.109 19.8699 156.894 18.2954C155.749 18.5817 154.926 18.7248 154.425 18.7248C152.707 18.7248 151.848 17.866 151.848 16.1483C151.848 15.2895 152.385 14.538 153.459 13.8939C154.532 13.2498 155.892 12.7846 157.538 12.4983C160.401 11.9258 162.941 11.6395 165.16 11.6395C166.019 11.6395 166.735 11.9616 167.307 12.6057C167.951 13.1782 168.273 13.8581 168.273 14.6454C168.273 15.4327 168.023 16.1126 167.522 16.6851C167.092 17.2577 166.52 17.5439 165.804 17.5439C165.375 17.5439 165.017 17.5081 164.731 17.4366H163.872C163.156 17.4366 162.619 17.6155 162.262 17.9733C161.975 18.2596 161.832 18.8322 161.832 19.691C161.832 26.6331 162.262 37.0822 163.12 51.038C163.263 53.6145 163.55 57.4076 163.979 62.4174C164.337 65.7096 164.516 69.0733 164.516 72.5086V76.588C164.945 76.5164 165.661 76.4807 166.663 76.4807C169.669 76.4807 171.172 77.7331 171.172 80.238V80.8821L168.488 82.7071C168.416 82.7071 168.166 82.7429 167.737 82.8145C167.379 82.8145 166.663 82.8145 165.589 82.8145C163.299 82.9576 161.832 83.0292 161.188 83.0292Z" fill="white"/>
  <path d="M184.976 84.5321C184.045 84.5321 183.187 84.2101 182.399 83.5659C181.684 82.9218 181.29 82.1346 181.219 81.2042V78.413V76.266C181.147 75.6218 181.111 74.8704 181.111 74.0115C181.111 72.5086 181.004 70.2184 180.789 67.141L180.574 60.2704C180.574 56.7635 180.682 51.539 180.896 44.5968C181.183 38.3704 181.326 33.1459 181.326 28.9233C181.326 27.9214 181.219 26.4184 181.004 24.4145C180.789 22.339 180.682 20.8361 180.682 19.9057C180.682 14.8243 182.185 12.2836 185.191 12.2836C187.552 12.2836 190.272 12.7488 193.349 13.6792C196.498 14.6096 198.073 15.7189 198.073 17.0072C198.073 17.7228 197.751 18.4027 197.107 19.0469C196.534 19.6194 195.819 20.0846 194.96 20.4424C191.954 19.3689 189.234 18.6532 186.801 18.2954C186.872 19.3689 186.908 20.9076 186.908 22.9116C186.908 25.7743 186.872 28.3508 186.801 30.641C186.586 34.0763 186.479 36.6527 186.479 38.3704L186.801 40.088L188.519 39.9807C189.091 39.9091 189.807 39.8733 190.666 39.8733C194.101 39.8733 195.819 40.8753 195.819 42.8792C195.819 43.6665 195.496 44.3464 194.852 44.9189C194.208 45.4199 193.385 45.6704 192.383 45.6704C191.095 45.6704 190.093 45.5988 189.377 45.4557H186.694C186.837 47.3165 186.908 50.0361 186.908 53.6145C186.908 57.1929 186.872 60.4135 186.801 63.2763C186.586 67.6419 186.479 70.8983 186.479 73.0454C186.479 77.0532 186.55 79.0571 186.694 79.0571L190.236 78.9498C191.453 78.8782 192.92 78.8424 194.638 78.8424C197.357 78.8424 198.717 79.7012 198.717 81.4189C198.717 82.4209 198.252 83.1723 197.321 83.6733C196.463 84.2459 195.389 84.5321 194.101 84.5321H184.976Z" fill="white"/>
  <path d="M215.161 26.4542C214.589 26.3111 214.303 25.667 214.303 24.5219C214.303 23.0189 214.696 20.4424 215.483 16.7925C216.271 13.1425 217.344 9.67138 218.704 6.37922C220.135 2.72923 221.603 0.904226 223.105 0.904226C224.394 0.904226 225.038 1.69148 225.038 3.26599C225.038 6.27187 224.501 9.6356 223.428 13.3572C222.426 17.0072 221.137 20.1204 219.563 22.6969C217.917 25.2018 216.45 26.4542 215.161 26.4542Z" fill="white"/>
  <path d="M243.509 84.6395C242.221 84.4248 241.112 83.9596 240.181 83.2439C239.322 82.5282 238.821 81.5978 238.678 80.4527L239.859 78.6277C240.289 78.6277 240.969 78.7709 241.899 79.0571C242.972 79.2718 243.795 79.3792 244.368 79.3792C245.656 79.3792 246.801 78.8066 247.803 77.6615C248.877 76.5164 249.664 75.0135 250.165 73.1527C251.095 69.7174 251.561 66.64 251.561 63.9204C251.561 59.1968 250.058 54.2228 247.052 48.9983L245.871 46.9586C244.511 44.5968 243.366 42.4856 242.436 40.6248C241.505 38.764 240.718 36.7601 240.074 34.613C239.215 31.8219 238.786 29.0307 238.786 26.2395C238.786 23.0905 239.501 19.7983 240.933 16.363C241.648 14.717 242.65 13.3929 243.939 12.391C245.298 11.3175 246.801 10.7807 248.447 10.7807C249.736 10.7807 250.917 11.2101 251.99 12.0689C253.135 12.8562 253.708 13.8224 253.708 14.9675C253.708 15.6116 253.457 16.1125 252.956 16.4704C252.455 16.8282 251.847 17.0072 251.131 17.0072C250.344 17.0072 249.593 16.7924 248.877 16.363C247.302 16.4346 246.05 17.8302 245.12 20.5498C244.332 23.0547 243.939 25.1302 243.939 26.7763C243.939 28.8518 244.261 30.963 244.905 33.1101C245.549 35.1856 246.372 37.0822 247.374 38.7998L249.736 43.0939L253.493 50.1792C254.495 52.1831 255.282 54.5091 255.855 57.1571C256.499 59.8052 256.821 62.489 256.821 65.2086C256.821 69.5743 255.819 73.7253 253.815 77.6615C252.813 79.6655 251.382 81.2758 249.521 82.4924C247.732 83.7091 245.728 84.3174 243.509 84.3174V84.6395Z" fill="white"/>
  <path d="M291.248 83.6733C290.46 83.6733 289.816 83.3512 289.315 82.7071C288.886 81.9914 288.671 81.1326 288.671 80.1307L288.886 62.0954C289.101 53.364 289.208 46.6008 289.208 41.8057C289.208 25.1302 288.278 12.3552 286.417 3.48069C287.49 1.83462 288.85 1.01158 290.496 1.01158C293.144 1.01158 295.542 1.61991 297.689 2.83658C299.907 3.98167 301.732 5.55618 303.164 7.5601C305.955 11.7111 307.351 16.363 307.351 21.516C307.351 26.8836 306.206 31.6787 303.915 35.9013C301.625 40.1238 298.297 43.416 293.931 45.7777L294.146 56.6204L294.361 62.3101C294.432 63.5267 294.468 65.2802 294.468 67.5704C294.683 72.3655 294.79 76.266 294.79 79.2718C294.79 80.6316 294.504 81.7052 293.931 82.4924C293.359 83.2797 292.464 83.6733 291.248 83.6733ZM293.717 40.6248C296.508 37.9768 298.548 35.2214 299.836 32.3586C301.196 29.4243 301.876 26.1322 301.876 22.4822V22.3748C301.876 20.7287 301.697 18.6532 301.339 16.1483C301.124 15.2895 300.731 14.4307 300.158 13.5719C299.585 12.713 299.263 12.2121 299.192 12.0689C298.691 11.3532 297.367 10.2439 295.22 8.74099L292.429 6.70128C292.429 10.3513 292.643 16.0052 293.073 23.663L293.717 40.6248Z" fill="white"/>
  <path d="M324 83.0292C317.773 83.0292 314.66 81.9557 314.66 79.8086C314.66 78.0909 315.769 77.2321 317.988 77.2321H319.169L320.242 77.3395C320.815 77.3395 321.208 77.1606 321.423 76.8027C321.638 76.4449 321.745 75.8008 321.745 74.8704C321.745 73.6537 321.674 71.7571 321.53 69.1807C321.316 67.463 321.065 64.3856 320.779 59.9483C320.135 48.9983 319.813 40.7321 319.813 35.1498C319.813 33.1459 319.849 31.3209 319.92 29.6748L320.027 24.1998C320.027 21.838 319.92 19.8699 319.705 18.2954C318.56 18.5817 317.737 18.7248 317.236 18.7248C315.519 18.7248 314.66 17.866 314.66 16.1483C314.66 15.2895 315.197 14.538 316.27 13.8939C317.344 13.2498 318.703 12.7846 320.35 12.4983C323.212 11.9258 325.753 11.6395 327.972 11.6395C328.83 11.6395 329.546 11.9616 330.119 12.6057C330.763 13.1782 331.085 13.8581 331.085 14.6454C331.085 15.4327 330.834 16.1126 330.333 16.6851C329.904 17.2577 329.331 17.5439 328.616 17.5439C328.186 17.5439 327.828 17.5081 327.542 17.4366H326.683C325.968 17.4366 325.431 17.6155 325.073 17.9733C324.787 18.2596 324.644 18.8322 324.644 19.691C324.644 26.6331 325.073 37.0822 325.932 51.038C326.075 53.6145 326.361 57.4076 326.791 62.4174C327.149 65.7096 327.327 69.0733 327.327 72.5086V76.588C327.757 76.5164 328.473 76.4807 329.475 76.4807C332.48 76.4807 333.983 77.7331 333.983 80.238V80.8821L331.3 82.7071C331.228 82.7071 330.977 82.7429 330.548 82.8145C330.19 82.8145 329.475 82.8145 328.401 82.8145C326.111 82.9576 324.644 83.0292 324 83.0292Z" fill="white"/>
  <path d="M344.459 83.3512C343.672 83.3512 342.992 83.1365 342.42 82.7071C341.847 82.2061 341.561 81.5978 341.561 80.8821C341.561 76.588 342.384 70.9341 344.03 63.9204C345.748 56.9067 348.217 48.2469 351.437 37.941C354.658 27.2773 356.662 20.4067 357.449 17.3292C356.59 17.3292 355.195 17.4366 353.262 17.6513C351.33 17.866 349.791 17.9733 348.646 17.9733C347.931 17.9733 347.286 17.6871 346.714 17.1145C346.141 16.4704 345.855 15.7547 345.855 14.9675C345.855 12.892 349.791 11.8542 357.664 11.8542C361.242 11.8542 363.032 12.8562 363.032 14.8601C363.032 17.1503 362.244 20.5498 360.67 25.0586C359.167 29.0665 358.236 32.1081 357.879 34.1836C357.163 39.265 355.302 47.5669 352.296 59.0895L347.573 77.6615H349.505L351.759 77.4468C352.404 77.3753 353.155 77.3395 354.014 77.3395V77.2321C356.877 77.2321 358.308 78.1267 358.308 79.9159C358.308 80.7032 357.95 81.3473 357.234 81.8483C356.519 82.2777 355.624 82.4924 354.551 82.4924C353.406 82.4924 352.368 82.4566 351.437 82.3851L348.217 82.1704C347.787 82.1704 347.179 82.3851 346.392 82.8145C345.461 83.1723 344.817 83.3512 344.459 83.3512Z" fill="white"/>
  <path d="M375.806 83.3512C375.018 83.3512 374.339 83.1365 373.766 82.7071C373.193 82.2061 372.907 81.5978 372.907 80.8821C372.907 76.588 373.73 70.9341 375.376 63.9204C377.094 56.9067 379.563 48.2469 382.784 37.941C386.004 27.2773 388.008 20.4067 388.795 17.3292C387.937 17.3292 386.541 17.4366 384.609 17.6513C382.676 17.866 381.138 17.9733 379.992 17.9733C379.277 17.9733 378.633 17.6871 378.06 17.1145C377.488 16.4704 377.201 15.7547 377.201 14.9675C377.201 12.892 381.138 11.8542 389.01 11.8542C392.589 11.8542 394.378 12.8562 394.378 14.8601C394.378 17.1503 393.591 20.5498 392.016 25.0586C390.513 29.0665 389.583 32.1081 389.225 34.1836C388.509 39.265 386.648 47.5669 383.642 59.0895L378.919 77.6615H380.851L383.106 77.4468C383.75 77.3753 384.501 77.3395 385.36 77.3395V77.2321C388.223 77.2321 389.654 78.1267 389.654 79.9159C389.654 80.7032 389.296 81.3473 388.581 81.8483C387.865 82.2777 386.97 82.4924 385.897 82.4924C384.752 82.4924 383.714 82.4566 382.784 82.3851L379.563 82.1704C379.134 82.1704 378.525 82.3851 377.738 82.8145C376.808 83.1723 376.164 83.3512 375.806 83.3512Z" fill="white"/>
  <path d="M426.69 84.1027C425.044 84.1027 423.827 83.8522 423.04 83.3512C422.253 82.8503 421.859 81.9199 421.859 80.5601C421.859 78.413 421.501 74.763 420.786 69.6101L420.356 67.3557L409.728 65.7454C409.299 67.3914 408.691 70.7194 407.903 75.7292C407.474 79.236 406.794 81.562 405.864 82.7071C405.363 83.3512 404.647 83.6733 403.717 83.6733C402.858 83.6733 402.071 83.4228 401.355 82.9218C400.639 82.3493 400.281 81.6694 400.281 80.8821L400.496 80.3454L400.603 79.9159C405.327 61.5228 408.905 43.3802 411.339 25.488C411.339 25.2018 411.374 24.7366 411.446 24.0925C411.518 23.3768 411.589 22.3748 411.661 21.0866C411.875 18.4385 412.09 16.3273 412.305 14.7527C412.591 13.1782 413.021 11.9974 413.593 11.2101H417.243C418.245 11.2101 419.104 11.4606 419.82 11.9616C420.535 12.391 420.893 13.0351 420.893 13.8939C420.893 19.3331 421.645 27.4204 423.147 38.1557C424.579 49.1772 425.295 56.9066 425.295 61.3439C425.295 61.7733 425.473 62.8826 425.831 64.6718C426.189 66.3179 426.368 67.3914 426.368 67.8924C426.368 68.3934 426.726 70.5405 427.442 74.3336C428.086 77.7689 428.408 79.9875 428.408 80.9895V81.0968C428.408 82.6713 427.835 83.6733 426.69 84.1027ZM419.605 63.491C419.39 62.4174 419.283 61.0934 419.283 59.5189C419.283 53.0777 418.71 44.8473 417.565 34.8277L416.492 23.663C413.414 40.4817 411.303 53.1851 410.158 61.7733C411.231 62.489 414.38 63.0615 419.605 63.491Z" fill="white"/>
  <path d="M439.554 84.6395C438.266 84.4248 437.156 83.9596 436.226 83.2439C435.367 82.5282 434.866 81.5978 434.723 80.4527L435.904 78.6277C436.333 78.6277 437.013 78.7709 437.944 79.0571C439.017 79.2718 439.84 79.3792 440.413 79.3792C441.701 79.3792 442.846 78.8066 443.848 77.6615C444.922 76.5164 445.709 75.0135 446.21 73.1527C447.14 69.7174 447.605 66.64 447.605 63.9204C447.605 59.1968 446.103 54.2228 443.097 48.9983L441.916 46.9586C440.556 44.5968 439.411 42.4856 438.48 40.6248C437.55 38.764 436.763 36.7601 436.119 34.613C435.26 31.8219 434.83 29.0307 434.83 26.2395C434.83 23.0905 435.546 19.7983 436.978 16.363C437.693 14.717 438.695 13.3929 439.983 12.391C441.343 11.3175 442.846 10.7807 444.492 10.7807C445.78 10.7807 446.961 11.2101 448.035 12.0689C449.18 12.8562 449.753 13.8224 449.753 14.9675C449.753 15.6116 449.502 16.1125 449.001 16.4704C448.5 16.8282 447.892 17.0072 447.176 17.0072C446.389 17.0072 445.637 16.7924 444.922 16.363C443.347 16.4346 442.095 17.8302 441.164 20.5498C440.377 23.0547 439.983 25.1302 439.983 26.7763C439.983 28.8518 440.305 30.963 440.95 33.1101C441.594 35.1856 442.417 37.0822 443.419 38.7998L445.78 43.0939L449.538 50.1792C450.54 52.1831 451.327 54.5091 451.9 57.1571C452.544 59.8052 452.866 62.489 452.866 65.2086C452.866 69.5743 451.864 73.7253 449.86 77.6615C448.858 79.6655 447.427 81.2758 445.566 82.4924C443.777 83.7091 441.773 84.3174 439.554 84.3174V84.6395Z" fill="white"/>
</svg>
