<svg width="1440" height="23" viewBox="0 0 1440 23" fill="none" xmlns="http://www.w3.org/2000/svg">
<path d="M260.571 5.24424C173.706 7.61991 86.9038 11.7851 0 11.7851V22.8492H1440V11.7851C1422.64 11.7851 1405.16 7.89892 1387.82 6.53005C1368.6 5.01256 1350.74 2.05416 1331.23 3.28757C1299.11 5.31873 1267.01 3.73481 1234.84 3.73481C1211.68 3.73481 1189.1 8.20126 1166.05 9.94024C1154.78 10.7899 1143.3 9.76436 1132.1 10.8347C1119.54 12.034 1106.96 11.8165 1094.36 11.7851C1035.75 11.6393 977.21 8.7775 918.634 7.36862C848.533 5.68254 778.457 2.29308 708.348 1.16319C661.309 0.405085 614.327 1.74853 567.303 2.72853C465.064 4.85924 362.799 2.44842 260.571 5.24424Z" fill="#BE1414"/>
</svg>
